<svg width="24" height="24" viewBox="0 0 24 24" fill="none" xmlns="http://www.w3.org/2000/svg">
<path d="M21.6819 3.31238L13.4319 21.3124C13.3629 21.4632 13.2458 21.5868 13.0991 21.664C12.9523 21.7412 12.7841 21.7675 12.6207 21.7389C12.4574 21.7104 12.3081 21.6284 12.1963 21.506C12.0844 21.3836 12.0163 21.2275 12.0026 21.0623L11.3051 12.6947L2.93754 11.9972C2.77228 11.9835 2.61623 11.9154 2.4938 11.8035C2.37136 11.6917 2.28945 11.5424 2.26086 11.3791C2.23228 11.2157 2.25863 11.0475 2.33581 10.9007C2.41299 10.754 2.53664 10.6369 2.68742 10.5679L20.6874 2.31788C20.8266 2.25411 20.9819 2.23445 21.1326 2.26152C21.2832 2.2886 21.422 2.36113 21.5302 2.46937C21.6384 2.5776 21.711 2.71636 21.7381 2.86702C21.7651 3.01767 21.7455 3.17301 21.6817 3.31216L21.6819 3.31238Z" fill="#080809"/>
</svg>
