<svg width="160" height="146" viewBox="0 0 160 146" fill="none" xmlns="http://www.w3.org/2000/svg">
<path d="M43.8052 68.9999C43.8052 78.941 51.864 86.9999 61.8052 86.9999L88.8052 86.9999C91.5666 86.9999 93.8052 84.7613 93.8052 81.9999L93.8052 47.9999C93.8052 42.477 89.328 37.9999 83.8052 37.9999L48.8052 37.9999C46.0437 37.9999 43.8052 40.2385 43.8052 42.9999L43.8052 68.9999Z" fill="#FFF1DA"/>
<path d="M92.358 82.9435C91.0011 83.2287 89.6813 83.7761 88.4804 84.5514C85.3517 86.5207 83.5428 89.3745 84.4403 90.9251C85.3379 92.4756 88.6019 92.1354 91.7307 90.1661C92.9479 89.4192 94.0273 88.4569 94.9023 87.3387C95.3082 86.7982 95.3772 86.1176 95.0784 85.6032L93.9124 83.5889C93.6157 83.073 93.0057 82.82 92.358 82.9435Z" fill="#D5D6DB"/>
<path d="M84.4795 55.9499C83.4956 56.1568 82.5385 56.5539 81.6677 57.1162C79.3995 58.5438 78.0871 60.613 78.7374 61.7364C79.3877 62.8598 81.7554 62.6129 84.0233 61.1854C84.9059 60.6435 85.6885 59.9454 86.3231 59.1345C86.6171 58.7427 86.6669 58.2497 86.4504 57.8768L85.6061 56.4182C85.3912 56.0442 84.9492 55.8604 84.4795 55.9499Z" fill="#D5D6DB"/>
<path d="M71.6624 56.9036C71.4429 56.8754 71.2095 56.9305 71.0075 57.0579L65.6807 60.4098C65.2352 60.6893 65.0598 61.2385 65.2894 61.6368C65.3419 61.7281 65.4135 61.8064 65.5001 61.8673L78.7467 71.2443L96.5088 60.0674L71.6624 56.9036Z" fill="#029BC5"/>
<path d="M128.072 56.1252L79.5951 86.4909L50.8697 97.6745L36.2005 100.404L34.566 97.5867L115.377 47.9702C117.785 46.485 120.473 45.593 123.169 45.3849C124.349 45.3001 125.516 45.359 126.642 45.5596C127.64 45.7295 128.588 46.0413 129.457 46.4858C130.427 46.9892 132.268 47.0754 132.87 48.0567C132.872 48.0552 134.308 52.539 128.072 56.1252Z" fill="#E1E6E9"/>
<path d="M80.114 82.1174L59.3013 115.743C59.0417 116.216 59.2012 116.753 59.6572 116.942C59.9371 117.058 60.2784 117.02 60.5642 116.84L65.8963 113.486C66.9219 112.84 67.8283 112.014 68.5595 111.059L109.037 63.1402L80.114 82.1174Z" fill="#029BC5"/>
<path d="M27.1668 81.0516C26.8161 80.9256 26.4 80.9813 26.05 81.2011L21.6548 83.9601C21.0559 84.3358 20.8212 85.0727 21.1303 85.6064C21.1893 85.7078 21.2655 85.7975 21.3566 85.8719L33.7905 96.0417L46.7389 88.0747L27.1668 81.0516Z" fill="#029BC5"/>
<path d="M37.8562 97.7224L31.2426 107.09C31.1456 107.225 31.1698 107.396 31.2965 107.473C31.3879 107.528 31.5121 107.52 31.6127 107.453L35.7326 104.863C35.7646 104.843 35.7935 104.818 35.8174 104.789L45.4931 92.9261L37.8562 97.7224Z" fill="#029BC5"/>
<path d="M125.903 45.8767C124.746 45.6706 123.547 45.6112 122.333 45.6994C121.162 47.3494 120.419 49.2122 120.178 51.1019C120.162 51.482 120.468 51.7607 120.861 51.7245C120.983 51.713 121.104 51.6716 121.213 51.6039L128.796 46.8296C127.903 46.3719 126.928 46.0511 125.903 45.8767Z" fill="#029BC5"/>
<path d="M109.332 54.6874L114.262 51.6283L118.926 59.5751L113.996 62.6342L109.332 54.6874Z" fill="#D5D6DB"/>
<path d="M106.199 57.8605C105.605 58.2305 105.371 58.9571 105.678 59.4833L106.175 60.3358C106.502 60.8491 107.24 60.9509 107.824 60.5631C108.38 60.1938 108.6 59.5092 108.328 58.9962L107.83 58.1437C107.524 57.618 106.794 57.491 106.199 57.8605Z" fill="#3A556A"/>
<path d="M101.735 60.633C101.14 61.0031 100.907 61.7297 101.214 62.2559L101.711 63.1084C102.037 63.6217 102.776 63.7235 103.36 63.3357C103.916 62.9664 104.136 62.2817 103.863 61.7688L103.366 60.9163C103.059 60.3907 102.329 60.2638 101.735 60.633Z" fill="#3A556A"/>
<path d="M97.269 63.4063C96.6751 63.7768 96.4424 64.5026 96.749 65.0283L97.2461 65.8808C97.5728 66.3941 98.311 66.4959 98.8951 66.1081C99.4511 65.7388 99.6712 65.0542 99.3984 64.5413L98.9013 63.6888C98.5945 63.1626 97.8638 63.0361 97.269 63.4063Z" fill="#3A556A"/>
<path d="M92.8048 66.1787C92.2109 66.5493 91.9782 67.2751 92.2848 67.8008L92.7819 68.6533C93.1085 69.1666 93.8468 69.2684 94.4309 68.8806C94.9868 68.5113 95.2069 67.8267 94.9342 67.3137L94.4371 66.4612C94.13 65.9352 93.3993 65.8087 92.8048 66.1787Z" fill="#3A556A"/>
<path d="M88.3408 68.9514C87.7466 69.322 87.5137 70.048 87.8205 70.574L88.3178 71.4267C88.6245 71.9524 89.3548 72.0788 89.9491 71.709C90.5435 71.3392 90.7767 70.6132 90.4701 70.0875L89.9727 69.2347C89.6669 68.7086 88.9367 68.5814 88.342 68.9506C88.3415 68.9509 88.3413 68.951 88.3408 68.9514Z" fill="#3A556A"/>
<path d="M83.8764 71.7238C83.2822 72.0945 83.0494 72.8205 83.3561 73.3464L83.8535 74.1992C84.1601 74.7249 84.8904 74.8513 85.4848 74.4815C86.0791 74.1117 86.3123 73.3857 86.0057 72.86L85.5084 72.0072C85.2025 71.481 84.4724 71.3539 83.8777 71.723C83.8772 71.7234 83.8767 71.7237 83.8764 71.7238Z" fill="#3A556A"/>
<path d="M79.4118 74.4963C78.8176 74.8669 78.5848 75.5929 78.8915 76.1189L79.3889 76.9716C79.6962 77.4968 80.4269 77.6221 81.0206 77.2518C81.6133 76.8821 81.846 76.1576 81.5408 75.6326L81.0435 74.7798C80.737 74.2538 80.0066 74.1268 79.4118 74.4963Z" fill="#3A556A"/>
<path d="M74.9472 77.2687C74.353 77.6394 74.1202 78.3654 74.4269 78.8913L74.9243 79.7441C75.2316 80.2694 75.9623 80.3946 76.556 80.0243C77.1487 79.6546 77.3814 78.9301 77.0762 78.4051L76.5789 77.5523C76.2724 77.0262 75.542 76.8992 74.9472 77.2687Z" fill="#3A556A"/>
<path d="M70.4828 80.0412C69.8887 80.4119 69.6558 81.1379 69.9625 81.6638L70.4599 82.5165C70.7673 83.0418 71.498 83.167 72.0917 82.7967C72.6843 82.427 72.9171 81.7026 72.6119 81.1775L72.1145 80.3247C71.8078 79.7988 71.0774 79.6719 70.4828 80.0412Z" fill="#3A556A"/>
<path d="M66.017 82.8144C65.4227 83.1842 65.1895 83.9102 65.4961 84.4359L65.4967 84.437L65.9941 85.2898C66.3015 85.815 67.0322 85.9403 67.6258 85.5699C68.2185 85.2002 68.4513 84.4758 68.146 83.9507L67.6487 83.0979C67.3422 82.5718 66.6119 82.4449 66.017 82.8144Z" fill="#3A556A"/>
<path d="M61.5539 85.5861C60.9596 85.956 60.7263 86.6819 61.033 87.2076L61.0336 87.2087L61.531 88.0615C61.8383 88.5867 62.5691 88.7119 63.1627 88.3416C63.7554 87.9719 63.9882 87.2475 63.683 86.7224L63.1856 85.8697C62.8789 85.3438 62.1485 85.2168 61.5539 85.5861Z" fill="#3A556A"/>
</svg>
