<svg width="47" height="48" viewBox="0 0 47 48" fill="none" xmlns="http://www.w3.org/2000/svg">
<rect width="47" height="48" rx="13" fill="#F0BB1F"/>
<g clip-path="url(#clip0_4_1673)">
<path d="M28.46 17C28.4 17.89 28.25 18.76 28.01 19.59L29.21 20.79C29.62 19.59 29.88 18.32 29.97 17H28.46V17ZM18.6 29.02C17.75 29.26 16.88 29.41 16 29.47V30.96C17.32 30.87 18.59 30.61 19.8 30.21L18.6 29.02ZM27.5 15H31C31.55 15 32 15.45 32 16C32 25.39 24.39 33 15 33C14.45 33 14 32.55 14 32V28.51C14 27.96 14.45 27.51 15 27.51C16.24 27.51 17.45 27.31 18.57 26.94C18.67 26.9 18.78 26.89 18.88 26.89C19.14 26.89 19.39 26.99 19.59 27.18L21.79 29.38C24.62 27.93 26.94 25.62 28.38 22.79L26.18 20.59C25.9 20.31 25.82 19.92 25.93 19.57C26.3 18.45 26.5 17.25 26.5 16C26.5 15.45 26.95 15 27.5 15Z" fill="white"/>
</g>
<defs>
<clipPath id="clip0_4_1673">
<rect width="24" height="24" fill="white" transform="translate(11 12)"/>
</clipPath>
</defs>
</svg>
