<svg width="312" height="53" viewBox="0 0 312 53" fill="none" xmlns="http://www.w3.org/2000/svg">
<rect x="89" y="41" width="84" height="12" rx="6" fill="#FFF1DA"/>
<rect x="163" width="20" height="12" rx="6" fill="#FFF1DA"/>
<rect y="41" width="20" height="12" rx="6" fill="#FFF1DA"/>
<path d="M15.2788 34L13.7778 29.0723H6.23047L4.72949 34H0L7.30664 13.2129H12.6733L20.0083 34H15.2788ZM12.73 25.3906L11.229 20.5762C11.1346 20.2552 11.0072 19.8446 10.8467 19.3442C10.6956 18.8345 10.5399 18.32 10.3794 17.8008C10.2284 17.2721 10.1056 16.8143 10.0112 16.4272C9.91683 16.8143 9.78467 17.2957 9.61475 17.8716C9.45426 18.438 9.2985 18.9761 9.14746 19.4858C8.99642 19.9956 8.88786 20.359 8.82178 20.5762L7.33496 25.3906H12.73ZM26.6069 11.9668V17.0928C26.6069 17.6875 26.5881 18.2775 26.5503 18.8628C26.522 19.4481 26.4842 19.9012 26.437 20.2222H26.6069C27.0223 19.5708 27.5887 19.0186 28.3062 18.5654C29.0236 18.1029 29.9535 17.8716 31.0957 17.8716C32.8704 17.8716 34.3101 18.5654 35.4146 19.9531C36.519 21.3408 37.0713 23.3752 37.0713 26.0562C37.0713 27.8592 36.8164 29.3743 36.3066 30.6016C35.7969 31.8193 35.0841 32.7397 34.1685 33.3628C33.2528 33.9764 32.1908 34.2832 30.9824 34.2832C29.8213 34.2832 28.9056 34.0755 28.2354 33.6602C27.5651 33.2448 27.0223 32.7775 26.6069 32.2583H26.3096L25.5874 34H22.2881V11.9668H26.6069ZM29.708 21.3267C28.9528 21.3267 28.3534 21.4824 27.9097 21.7939C27.466 22.1055 27.1403 22.5728 26.9326 23.1958C26.7344 23.8188 26.6258 24.6071 26.6069 25.5605V26.0278C26.6069 27.5666 26.8335 28.7466 27.2866 29.5679C27.7397 30.3797 28.5658 30.7856 29.7646 30.7856C30.652 30.7856 31.3553 30.375 31.8745 29.5537C32.4032 28.7324 32.6675 27.5477 32.6675 25.9995C32.6675 24.4513 32.4032 23.2855 31.8745 22.502C31.3459 21.7184 30.6237 21.3267 29.708 21.3267ZM44.9585 18.1689V34H40.6396V18.1689H44.9585ZM42.8062 11.9668C43.4481 11.9668 44.0003 12.1178 44.4629 12.4199C44.9255 12.7126 45.1567 13.2648 45.1567 14.0767C45.1567 14.8791 44.9255 15.436 44.4629 15.7476C44.0003 16.0496 43.4481 16.2007 42.8062 16.2007C42.1548 16.2007 41.5978 16.0496 41.1353 15.7476C40.6821 15.436 40.4556 14.8791 40.4556 14.0767C40.4556 13.2648 40.6821 12.7126 41.1353 12.4199C41.5978 12.1178 42.1548 11.9668 42.8062 11.9668ZM54.5166 34.2832C52.7513 34.2832 51.3117 33.5941 50.1978 32.2158C49.0933 30.8281 48.541 28.7938 48.541 26.1128C48.541 23.4035 49.1027 21.355 50.2261 19.9673C51.3494 18.5701 52.8174 17.8716 54.6299 17.8716C55.3851 17.8716 56.0506 17.9754 56.6265 18.1831C57.2023 18.3908 57.6979 18.6693 58.1133 19.0186C58.5381 19.3678 58.8968 19.7596 59.1895 20.1938H59.3311C59.2744 19.8918 59.2036 19.4481 59.1187 18.8628C59.0431 18.2681 59.0054 17.6592 59.0054 17.0361V11.9668H63.3384V34H60.0249L59.1895 31.9468H59.0054C58.7316 32.381 58.387 32.7775 57.9717 33.1362C57.5658 33.4855 57.0796 33.764 56.5132 33.9717C55.9468 34.1794 55.2812 34.2832 54.5166 34.2832ZM56.0317 30.8423C57.2118 30.8423 58.0425 30.493 58.5239 29.7944C59.0148 29.0864 59.2744 28.0244 59.3027 26.6084V26.1411C59.3027 24.6024 59.0667 23.4271 58.5947 22.6152C58.1227 21.7939 57.2448 21.3833 55.9609 21.3833C55.0075 21.3833 54.2617 21.7939 53.7236 22.6152C53.1855 23.4365 52.9165 24.6213 52.9165 26.1694C52.9165 27.7176 53.1855 28.8835 53.7236 29.667C54.2712 30.4505 55.0405 30.8423 56.0317 30.8423ZM78.8721 34H66.3687V31.4512L73.7036 21.4683H66.8076V18.1689H78.6172V20.9727L71.4805 30.7007H78.8721V34ZM88.501 17.8433C90.625 17.8433 92.2534 18.3058 93.3862 19.231C94.519 20.1561 95.0854 21.5627 95.0854 23.4507V34H92.0693L91.2339 31.8477H91.1206C90.6675 32.4141 90.2049 32.8766 89.7329 33.2354C89.2609 33.5941 88.7181 33.8584 88.1045 34.0283C87.4909 34.1982 86.7451 34.2832 85.8672 34.2832C84.9326 34.2832 84.0924 34.1038 83.3467 33.7451C82.6104 33.3864 82.0298 32.8389 81.605 32.1025C81.1802 31.3568 80.9678 30.4128 80.9678 29.2705C80.9678 27.5902 81.5578 26.3535 82.7378 25.5605C83.9178 24.7581 85.6878 24.3145 88.0479 24.2295L90.7949 24.1445V23.4507C90.7949 22.62 90.5778 22.0111 90.1436 21.624C89.7093 21.237 89.1051 21.0435 88.3311 21.0435C87.5664 21.0435 86.8159 21.152 86.0796 21.3691C85.3433 21.5863 84.6069 21.86 83.8706 22.1904L82.4404 19.2734C83.2806 18.8298 84.2199 18.4805 85.2583 18.2256C86.3062 17.9707 87.387 17.8433 88.501 17.8433ZM90.7949 26.665L89.124 26.7217C87.7269 26.7594 86.7546 27.0096 86.207 27.4722C85.6689 27.9347 85.3999 28.5436 85.3999 29.2988C85.3999 29.9596 85.5934 30.4316 85.9805 30.7148C86.3675 30.9886 86.8726 31.1255 87.4956 31.1255C88.4207 31.1255 89.1995 30.8517 89.832 30.3042C90.474 29.7567 90.7949 28.9779 90.7949 27.9678V26.665ZM108.382 17.8716C108.599 17.8716 108.849 17.8857 109.132 17.9141C109.425 17.9329 109.661 17.9613 109.84 17.999L109.515 22.0488C109.373 22.0016 109.17 21.9686 108.906 21.9497C108.651 21.9214 108.429 21.9072 108.24 21.9072C107.683 21.9072 107.14 21.978 106.612 22.1196C106.093 22.2612 105.625 22.4925 105.21 22.8135C104.795 23.125 104.464 23.5404 104.219 24.0596C103.983 24.5693 103.865 25.1971 103.865 25.9429V34H99.5459V18.1689H102.817L103.454 20.8311H103.667C103.978 20.293 104.365 19.8021 104.828 19.3584C105.3 18.9053 105.833 18.5465 106.428 18.2822C107.032 18.0085 107.683 17.8716 108.382 17.8716ZM128.574 34H124.185V16.9512H118.563V13.2979H134.196V16.9512H128.574V34ZM151.429 26.0562C151.429 27.3778 151.249 28.5483 150.891 29.5679C150.541 30.5874 150.027 31.4512 149.347 32.1592C148.677 32.8577 147.865 33.3864 146.912 33.7451C145.968 34.1038 144.901 34.2832 143.711 34.2832C142.597 34.2832 141.573 34.1038 140.639 33.7451C139.714 33.3864 138.906 32.8577 138.217 32.1592C137.538 31.4512 137.009 30.5874 136.631 29.5679C136.263 28.5483 136.079 27.3778 136.079 26.0562C136.079 24.3003 136.391 22.8135 137.014 21.5957C137.637 20.3779 138.524 19.4528 139.676 18.8203C140.827 18.1878 142.201 17.8716 143.796 17.8716C145.278 17.8716 146.591 18.1878 147.733 18.8203C148.885 19.4528 149.786 20.3779 150.438 21.5957C151.098 22.8135 151.429 24.3003 151.429 26.0562ZM140.483 26.0562C140.483 27.0946 140.596 27.9678 140.823 28.6758C141.049 29.3838 141.403 29.9172 141.885 30.2759C142.366 30.6346 142.994 30.814 143.768 30.814C144.533 30.814 145.151 30.6346 145.623 30.2759C146.104 29.9172 146.454 29.3838 146.671 28.6758C146.897 27.9678 147.011 27.0946 147.011 26.0562C147.011 25.0083 146.897 24.1398 146.671 23.4507C146.454 22.7521 146.104 22.2282 145.623 21.8789C145.142 21.5296 144.514 21.355 143.74 21.355C142.597 21.355 141.767 21.7467 141.248 22.5303C140.738 23.3138 140.483 24.4891 140.483 26.0562ZM169.525 18.1689V34H166.212L165.631 31.9751H165.405C165.065 32.5132 164.64 32.9521 164.13 33.292C163.621 33.6318 163.059 33.882 162.445 34.0425C161.832 34.203 161.194 34.2832 160.534 34.2832C159.401 34.2832 158.414 34.085 157.574 33.6885C156.734 33.2826 156.078 32.6548 155.606 31.8052C155.143 30.9556 154.912 29.8511 154.912 28.4917V18.1689H159.231V27.4155C159.231 28.5483 159.434 29.4027 159.84 29.9785C160.246 30.5544 160.892 30.8423 161.78 30.8423C162.658 30.8423 163.347 30.644 163.847 30.2476C164.347 29.8416 164.697 29.2516 164.895 28.4775C165.103 27.694 165.207 26.7406 165.207 25.6172V18.1689H169.525ZM182.893 17.8716C183.11 17.8716 183.36 17.8857 183.643 17.9141C183.936 17.9329 184.172 17.9613 184.351 17.999L184.025 22.0488C183.884 22.0016 183.681 21.9686 183.417 21.9497C183.162 21.9214 182.94 21.9072 182.751 21.9072C182.194 21.9072 181.651 21.978 181.123 22.1196C180.603 22.2612 180.136 22.4925 179.721 22.8135C179.305 23.125 178.975 23.5404 178.729 24.0596C178.493 24.5693 178.375 25.1971 178.375 25.9429V34H174.057V18.1689H177.328L177.965 20.8311H178.177C178.489 20.293 178.876 19.8021 179.338 19.3584C179.81 18.9053 180.344 18.5465 180.938 18.2822C181.543 18.0085 182.194 17.8716 182.893 17.8716ZM201.485 13.0005C202.599 13.0005 203.59 13.1751 204.458 13.5244C205.327 13.8737 206.011 14.3835 206.512 15.0537C207.021 15.724 207.276 16.5405 207.276 17.5034C207.276 18.8345 206.88 19.9531 206.087 20.8594C205.303 21.7656 204.322 22.5586 203.142 23.2383L207.163 27.1606C207.56 26.5093 207.895 25.8201 208.168 25.0933C208.452 24.3664 208.697 23.6348 208.905 22.8984H213.408C213.115 23.984 212.686 25.1452 212.119 26.3818C211.562 27.609 210.849 28.7655 209.981 29.8511L214.243 34H208.905L207.276 32.3999C206.719 32.7869 206.12 33.1221 205.478 33.4053C204.846 33.6885 204.166 33.9056 203.439 34.0566C202.722 34.2077 201.962 34.2832 201.159 34.2832C199.592 34.2832 198.247 34.0378 197.124 33.5469C196 33.056 195.141 32.3716 194.546 31.4937C193.952 30.6063 193.654 29.5773 193.654 28.4067C193.654 27.425 193.805 26.5848 194.107 25.8862C194.41 25.1782 194.844 24.5599 195.41 24.0312C195.977 23.4932 196.656 22.9976 197.449 22.5444C196.949 21.9591 196.548 21.4116 196.246 20.9019C195.953 20.3921 195.741 19.887 195.608 19.3867C195.486 18.877 195.424 18.3436 195.424 17.7866C195.424 16.8049 195.679 15.96 196.189 15.252C196.708 14.5345 197.421 13.9823 198.327 13.5952C199.243 13.1987 200.295 13.0005 201.485 13.0005ZM199.97 25.1216C199.611 25.3953 199.295 25.6785 199.021 25.9712C198.757 26.2638 198.554 26.5754 198.412 26.9058C198.271 27.2362 198.2 27.5996 198.2 27.9961C198.2 28.8268 198.511 29.4782 199.134 29.9502C199.757 30.4222 200.531 30.6582 201.457 30.6582C202.08 30.6582 202.66 30.5827 203.198 30.4316C203.736 30.2806 204.227 30.0682 204.671 29.7944L199.97 25.1216ZM201.457 16.3423C200.975 16.3423 200.513 16.465 200.069 16.7104C199.635 16.9559 199.417 17.4137 199.417 18.084C199.417 18.556 199.54 19.0186 199.786 19.4717C200.031 19.9154 200.357 20.3685 200.763 20.8311C201.575 20.3874 202.198 19.9437 202.632 19.5C203.066 19.0469 203.283 18.5324 203.283 17.9565C203.283 17.3807 203.085 16.9701 202.688 16.7246C202.301 16.4697 201.891 16.3423 201.457 16.3423ZM232.368 34H227.979V16.9512H222.357V13.2979H237.99V16.9512H232.368V34ZM249.672 17.8716C249.889 17.8716 250.139 17.8857 250.422 17.9141C250.715 17.9329 250.951 17.9613 251.13 17.999L250.805 22.0488C250.663 22.0016 250.46 21.9686 250.196 21.9497C249.941 21.9214 249.719 21.9072 249.53 21.9072C248.973 21.9072 248.431 21.978 247.902 22.1196C247.383 22.2612 246.915 22.4925 246.5 22.8135C246.085 23.125 245.754 23.5404 245.509 24.0596C245.273 24.5693 245.155 25.1971 245.155 25.9429V34H240.836V18.1689H244.107L244.744 20.8311H244.957C245.268 20.293 245.655 19.8021 246.118 19.3584C246.59 18.9053 247.123 18.5465 247.718 18.2822C248.322 18.0085 248.973 17.8716 249.672 17.8716ZM260.49 17.8433C262.614 17.8433 264.243 18.3058 265.375 19.231C266.508 20.1561 267.075 21.5627 267.075 23.4507V34H264.059L263.223 31.8477H263.11C262.657 32.4141 262.194 32.8766 261.722 33.2354C261.25 33.5941 260.707 33.8584 260.094 34.0283C259.48 34.1982 258.734 34.2832 257.856 34.2832C256.922 34.2832 256.082 34.1038 255.336 33.7451C254.6 33.3864 254.019 32.8389 253.594 32.1025C253.169 31.3568 252.957 30.4128 252.957 29.2705C252.957 27.5902 253.547 26.3535 254.727 25.5605C255.907 24.7581 257.677 24.3145 260.037 24.2295L262.784 24.1445V23.4507C262.784 22.62 262.567 22.0111 262.133 21.624C261.699 21.237 261.094 21.0435 260.32 21.0435C259.556 21.0435 258.805 21.152 258.069 21.3691C257.333 21.5863 256.596 21.86 255.86 22.1904L254.43 19.2734C255.27 18.8298 256.209 18.4805 257.248 18.2256C258.295 17.9707 259.376 17.8433 260.49 17.8433ZM262.784 26.665L261.113 26.7217C259.716 26.7594 258.744 27.0096 258.196 27.4722C257.658 27.9347 257.389 28.5436 257.389 29.2988C257.389 29.9596 257.583 30.4316 257.97 30.7148C258.357 30.9886 258.862 31.1255 259.485 31.1255C260.41 31.1255 261.189 30.8517 261.821 30.3042C262.463 29.7567 262.784 28.9779 262.784 27.9678V26.665ZM275.302 34L269.27 18.1689H273.787L276.845 27.189C277.015 27.7176 277.147 28.2746 277.242 28.8599C277.346 29.4451 277.416 29.9691 277.454 30.4316H277.567C277.596 29.9313 277.662 29.3979 277.766 28.8315C277.879 28.2651 278.025 27.7176 278.205 27.189L281.249 18.1689H285.766L279.734 34H275.302ZM294.574 17.8716C296.037 17.8716 297.297 18.1548 298.354 18.7212C299.412 19.2782 300.228 20.09 300.804 21.1567C301.38 22.2235 301.668 23.5262 301.668 25.0649V27.1606H291.458C291.506 28.3784 291.869 29.3366 292.549 30.0352C293.238 30.7243 294.191 31.0688 295.409 31.0688C296.419 31.0688 297.344 30.965 298.185 30.7573C299.025 30.5496 299.889 30.2381 300.776 29.8228V33.1646C299.992 33.5516 299.171 33.8348 298.312 34.0142C297.462 34.1935 296.429 34.2832 295.211 34.2832C293.625 34.2832 292.218 33.9906 290.991 33.4053C289.773 32.82 288.815 31.9279 288.117 30.729C287.428 29.5301 287.083 28.0197 287.083 26.1978C287.083 24.3475 287.395 22.8088 288.018 21.5815C288.65 20.3449 289.528 19.4198 290.651 18.8062C291.775 18.1831 293.082 17.8716 294.574 17.8716ZM294.602 20.9443C293.762 20.9443 293.063 21.2134 292.506 21.7515C291.959 22.2896 291.643 23.1344 291.558 24.2861H297.618C297.609 23.6442 297.491 23.0731 297.264 22.5728C297.047 22.0724 296.717 21.6759 296.273 21.3833C295.839 21.0907 295.282 20.9443 294.602 20.9443ZM309.499 34H305.18V11.9668H309.499V34Z" fill="#212832"/>
</svg>
